<svg width="40" height="40" viewBox="0 0 40 40" fill="none" xmlns="http://www.w3.org/2000/svg">
<path d="M15.9819 29.9756C16.5342 29.9756 16.9819 29.5279 16.9819 28.9756C16.9819 28.4233 16.5342 27.9756 15.9819 27.9756C15.4296 27.9756 14.9819 28.4233 14.9819 28.9756C14.9819 29.5279 15.4296 29.9756 15.9819 29.9756Z" stroke="#314158" stroke-width="1.99905" stroke-linecap="round" stroke-linejoin="round"/>
<path d="M26.9767 29.9756C27.529 29.9756 27.9767 29.5279 27.9767 28.9756C27.9767 28.4233 27.529 27.9756 26.9767 27.9756C26.4244 27.9756 25.9767 28.4233 25.9767 28.9756C25.9767 29.5279 26.4244 29.9756 26.9767 29.9756Z" stroke="#314158" stroke-width="1.99905" stroke-linecap="round" stroke-linejoin="round"/>
<path d="M10.0343 10.0342H12.0333L14.6921 22.4483C14.7896 22.9029 15.0426 23.3093 15.4074 23.5976C15.7723 23.8858 16.2263 24.0378 16.6911 24.0275H26.4665C26.9214 24.0268 27.3625 23.8709 27.7169 23.5855C28.0713 23.3002 28.3177 22.9026 28.4155 22.4582L30.0647 15.0318H13.1028" stroke="#314158" stroke-width="1.99905" stroke-linecap="round" stroke-linejoin="round"/>
</svg>
