<svg width="70" height="70" viewBox="0 0 70 70" fill="none" xmlns="http://www.w3.org/2000/svg">
<path d="M24.1792 32.9293C23.9137 33.2067 23.7055 33.5338 23.5667 33.8918C23.275 34.6019 23.275 35.3984 23.5667 36.1085C23.7055 36.4665 23.9137 36.7936 24.1792 37.071L32.9292 45.821C33.4784 46.3702 34.2233 46.6788 35 46.6788C35.7768 46.6788 36.5217 46.3702 37.0709 45.821C37.6201 45.2718 37.9286 44.5269 37.9286 43.7502C37.9286 42.9734 37.6201 42.2285 37.0709 41.6793L33.2792 37.9168H43.75C44.5236 37.9168 45.2655 37.6095 45.8124 37.0626C46.3594 36.5156 46.6667 35.7737 46.6667 35.0002C46.6667 34.2266 46.3594 33.4848 45.8124 32.9378C45.2655 32.3908 44.5236 32.0835 43.75 32.0835H33.2792L37.0709 28.321C37.3442 28.0499 37.5612 27.7273 37.7093 27.3718C37.8574 27.0164 37.9336 26.6352 37.9336 26.2502C37.9336 25.8651 37.8574 25.4839 37.7093 25.1285C37.5612 24.7731 37.3442 24.4505 37.0709 24.1793C36.7997 23.906 36.4771 23.689 36.1217 23.5409C35.7663 23.3928 35.3851 23.3166 35 23.3166C34.615 23.3166 34.2338 23.3928 33.8784 23.5409C33.5229 23.689 33.2003 23.906 32.9292 24.1793L24.1792 32.9293ZM5.83337 35.0002C5.83337 40.7688 7.54397 46.4079 10.7488 51.2043C13.9537 56.0007 18.5089 59.7391 23.8384 61.9467C29.168 64.1542 35.0324 64.7318 40.6902 63.6064C46.348 62.481 51.545 59.7031 55.624 55.6241C59.703 51.5451 62.4809 46.3481 63.6063 40.6903C64.7317 35.0325 64.1541 29.1681 61.9465 23.8386C59.739 18.5091 56.0006 13.9538 51.2042 10.749C46.4077 7.54409 40.7687 5.8335 35 5.8335C31.1698 5.8335 27.3771 6.58791 23.8384 8.05368C20.2998 9.51944 17.0845 11.6678 14.3761 14.3762C8.90628 19.846 5.83337 27.2647 5.83337 35.0002ZM58.3334 35.0002C58.3334 39.6151 56.9649 44.1263 54.401 47.9635C51.8371 51.8006 48.1929 54.7913 43.9293 56.5574C39.6657 58.3234 34.9742 58.7855 30.4479 57.8852C25.9217 56.9848 21.7641 54.7626 18.5009 51.4993C15.2377 48.2361 13.0154 44.0785 12.1151 39.5523C11.2147 35.026 11.6768 30.3345 13.4429 26.0709C15.2089 21.8073 18.1996 18.1631 22.0367 15.5992C25.8739 13.0353 30.3851 11.6668 35 11.6668C41.1884 11.6668 47.1234 14.1252 51.4992 18.501C55.875 22.8769 58.3334 28.8118 58.3334 35.0002Z" fill="#796040"/>
</svg>
