<svg width="68" height="64" viewBox="0 0 68 64" fill="none" xmlns="http://www.w3.org/2000/svg">
<path d="M30.6308 0.859375C31.6366 0.55221 33.0139 0.453263 34.4013 0.520508C35.7944 0.588055 37.2493 0.825867 38.4189 1.22754C40.2836 1.86787 41.5298 3.03866 42.0566 4.72461C42.5732 6.37858 42.3726 8.45023 41.5429 10.8672L40.9033 12.7285L42.0868 13.3369C42.8963 13.7526 43.9752 14.635 44.9394 15.5771C45.9048 16.5206 46.8208 17.5881 47.2753 18.4053C47.3443 18.5291 47.3725 18.5388 47.373 18.5391C47.3798 18.5425 47.4413 18.5719 47.6581 18.5488C48.1149 18.5002 48.916 18.2664 50.4667 17.7695C52.4792 17.1246 55.3796 16.4349 58.0937 15.9072C60.7957 15.3818 63.3694 15.0059 64.7109 15.0059H66.9697L67.0038 15.4688L67.3163 19.6484C67.9848 28.6225 66.8205 37.5044 63.9628 45.1592C61.9654 50.511 60.0541 53.6495 56.7167 57.0156C51.8084 61.9665 46.3955 63.9141 39.0732 63.3896C36.6349 63.215 35.5053 63.1298 34.3056 63.1318C33.1038 63.1339 31.8305 63.2238 29.1064 63.4072C26.5944 63.5764 24.5795 63.5253 22.6728 63.167C20.7637 62.8082 18.9866 62.1452 16.9443 61.1172H16.9433C12.8702 59.0665 9.76231 56.0928 7.20696 51.8242C2.23374 43.5161 -0.202424 31.4434 0.676689 19.6484L0.988213 15.4688L1.02337 15.0059H3.41692C4.69434 15.0059 7.60683 15.4747 10.5751 16.0762C13.5565 16.6803 16.6798 17.4359 18.3993 18.0361C18.9987 18.2454 19.4488 18.399 19.7968 18.5029C20.1513 18.6088 20.3644 18.652 20.4999 18.6592C20.5627 18.6625 20.594 18.6564 20.6064 18.6533C20.6151 18.6511 20.6171 18.6497 20.62 18.6475C20.6403 18.6324 20.6841 18.5877 20.7841 18.415C21.2991 17.5271 22.1958 16.4582 23.1386 15.5234C24.0775 14.5926 25.1131 13.7433 25.9238 13.3271L27.1347 12.7051L26.4228 10.416C25.9709 8.96559 25.7602 7.53944 25.7958 6.29199C25.8312 5.05577 26.1098 3.94047 26.6943 3.16504C27.0442 2.70071 27.6315 2.2507 28.3036 1.8623C28.9853 1.46841 29.7953 1.11455 30.6308 0.859375ZM5.43157 19.4355C5.23371 19.4355 5.17314 19.4564 5.15325 19.4668C5.14898 19.469 5.14203 19.4716 5.13079 19.4854C5.11719 19.502 5.09402 19.5382 5.06536 19.6084C5.00495 19.7564 4.94602 19.9982 4.88567 20.3984C4.82627 20.7925 4.76939 21.307 4.70306 21.9844C4.31071 25.9895 4.7702 31.0714 5.83587 36.0264C6.90164 40.9817 8.56434 45.7655 10.5517 49.1816C13.3304 53.9581 18.0616 57.8106 22.1493 58.7295C23.5067 59.0345 24.7181 59.2406 25.582 59.3301C25.6988 59.3422 25.8082 59.3518 25.9091 59.3594C25.8987 59.3505 25.8885 59.341 25.8779 59.332C25.4166 58.9401 24.7741 58.436 24.0644 57.916C17.853 53.3641 14.1133 46.3198 14.1132 39.1025C14.1132 37.4392 14.4929 34.931 15.0478 32.4375C15.6034 29.9406 16.3468 27.4063 17.0956 25.6895C17.4562 24.8628 17.7834 24.0685 18.0195 23.4561C18.1377 23.1493 18.2313 22.892 18.2949 22.7012C18.3048 22.6713 18.3121 22.6428 18.3202 22.6172C18.284 22.5966 18.2407 22.5735 18.1894 22.5479C17.9218 22.4142 17.5186 22.252 17.0058 22.0713C15.9854 21.7117 14.5863 21.2971 13.0908 20.9043C11.5963 20.5117 10.0148 20.1434 8.63372 19.873C7.23982 19.6002 6.08776 19.4356 5.43157 19.4355ZM61.9863 19.4805C61.1631 19.5047 59.6273 19.7052 58.5956 19.9258C57.6005 20.1385 55.3526 20.7559 53.3095 21.3535C52.2911 21.6514 51.3303 21.9427 50.6113 22.1729C50.2595 22.2855 49.9693 22.3818 49.7597 22.457C49.8157 22.6457 49.8968 22.898 50.0019 23.2021C50.2445 23.9043 50.6006 24.8591 51.0107 25.8955C52.6675 30.0855 53.883 35.7208 53.873 39.2383C53.8528 46.3282 50.1005 53.4895 44.1884 57.748L44.1874 57.7471C43.3405 58.3572 42.7209 58.8053 42.3075 59.1348C42.6516 59.1202 43.0998 59.0875 43.664 59.0449C52.1189 58.4068 58.9301 50.4575 62.0546 36.9492C62.5238 34.9198 62.9297 31.9161 63.1757 29.0176C63.4224 26.1116 63.5044 23.3636 63.3417 21.8359L63.0868 19.4473L61.9863 19.4805ZM32.79 33.0752C31.8687 34.2066 30.8155 35.9422 29.9062 37.7529C28.9964 39.5646 28.2511 41.4102 27.9267 42.7559C27.5341 44.3849 27.3679 46.4693 27.4208 48.416C27.4742 50.378 27.7487 52.1214 28.1874 53.1006C29.1228 55.1875 30.7594 56.8193 32.7197 57.6436C33.4111 57.9341 33.7343 58.0294 34.0488 58.0166C34.3758 58.0032 34.7501 57.8718 35.5341 57.5186C38.8655 56.0177 40.64 52.8001 40.6259 47.8672C40.6109 42.7791 38.5649 37.1226 35.3447 33.1934L35.0292 32.8184L33.9833 31.6084L32.79 33.0752ZM45.3124 24.2568C45.1171 24.3348 44.8566 24.4501 44.5478 24.5947C44.0854 24.8113 43.525 25.0896 42.9306 25.4004L42.3281 25.7207C40.5137 26.6986 39.1983 27.4591 38.3408 28.0254C37.91 28.3098 37.6101 28.5343 37.4238 28.7051C37.3793 28.7459 37.3442 28.7806 37.3173 28.8096C37.3216 28.8168 37.3253 28.8252 37.33 28.833C37.408 28.9626 37.526 29.1397 37.6786 29.3535C37.9829 29.7797 38.4066 30.3281 38.8749 30.8936C42.7785 35.6077 45.2041 43.1564 44.8427 49.4414C44.7898 50.363 44.7746 51.1947 44.7919 51.79C44.7924 51.8049 44.7934 51.8195 44.7939 51.834C44.8511 51.764 44.9139 51.6894 44.9775 51.6064C45.3825 51.0781 45.8751 50.3395 46.373 49.5195C47.3755 47.8686 48.3566 45.9626 48.7001 44.8525L48.8349 44.3896C50.1504 39.5291 49.321 32.278 46.6874 26.373C46.3862 25.6976 46.0635 25.0914 45.79 24.6621C45.6577 24.4545 45.5442 24.3013 45.4579 24.2031C45.4167 24.218 45.3678 24.2348 45.3124 24.2568ZM22.5536 24.207C22.4721 24.3171 22.3681 24.476 22.247 24.6807C21.9751 25.14 21.6423 25.7833 21.3183 26.4971C18.6994 32.2676 17.8288 39.5756 19.1298 44.4961L19.2519 44.9062C19.579 45.905 20.1925 47.177 20.9111 48.3945C21.6705 49.6813 22.5168 50.8492 23.2118 51.54C23.2303 51.3242 23.2456 51.0363 23.2548 50.6572C23.2696 50.0476 23.2724 49.2337 23.2724 48.1602C23.2724 41.1287 25.3253 35.555 30.0761 29.6328H30.0771L30.7255 28.8232L30.0654 28.3115C29.4939 27.8681 27.6846 26.8219 25.9081 25.8682C25.029 25.3962 24.1741 24.9554 23.5077 24.6338C23.1741 24.4727 22.8932 24.3441 22.6825 24.2568C22.635 24.2371 22.5914 24.2215 22.5536 24.207ZM32.7421 16.1592C31.9109 16.1537 31.2551 16.184 30.8886 16.249C29.3922 16.5142 28.4046 16.7827 27.6425 17.1621C26.8959 17.5338 26.3389 18.0262 25.7304 18.7881C25.3623 19.249 25.0291 19.6874 24.79 20.0215C24.7317 20.1029 24.6816 20.1784 24.6367 20.2441C24.7422 20.312 24.8717 20.3923 25.0234 20.4824C25.4959 20.7632 26.1527 21.1277 26.8788 21.5059C28.3625 22.2784 30.6614 23.6739 32.0029 24.6152H32.0038L34.1074 26.0918L35.8525 24.7529C37.0026 23.8694 39.2555 22.4866 40.8749 21.666C41.6677 21.2643 42.3847 20.8741 42.9003 20.5713C43.119 20.4429 43.2954 20.3324 43.4247 20.2461C43.3606 20.131 43.2675 19.987 43.1435 19.8213C42.8758 19.4636 42.4996 19.0375 42.0839 18.6152C41.669 18.1938 41.2234 17.786 40.8193 17.4629C40.3998 17.1276 40.0712 16.9216 39.8827 16.8555C39.5772 16.7484 38.971 16.6321 38.165 16.5264C37.3732 16.4225 36.4287 16.3333 35.4745 16.2686C34.5205 16.2039 33.5621 16.1646 32.7421 16.1592ZM33.1161 4.6123C32.6003 4.61062 32.2115 4.64515 31.996 4.70312C31.6637 4.79258 31.1087 5.09131 30.7158 5.39648L30.5585 5.52734C30.2706 5.78442 30.0627 6.36961 30.1103 7.33398C30.1564 8.26853 30.4392 9.44053 30.9697 10.7041L31.5165 12.0049H36.4853L37.1464 10.4844C37.7525 9.08906 38.0487 7.85262 38.0624 6.91504C38.0747 6.0727 37.8641 5.58741 37.58 5.35449L37.454 5.26953C37.278 5.1747 36.9237 5.0635 36.4257 4.95898C35.9428 4.85764 35.3691 4.77093 34.7861 4.70996C34.2031 4.64899 33.619 4.61395 33.1161 4.6123Z" fill="#D7C7B4" stroke="#D7C7B4"/>
</svg>
