<svg width="80" height="80" viewBox="0 0 80 80" fill="none" xmlns="http://www.w3.org/2000/svg">
<path d="M52.3666 42.3665C52.6701 42.0495 52.908 41.6757 53.0666 41.2665C53.4 40.455 53.4 39.5447 53.0666 38.7332C52.908 38.324 52.6701 37.9502 52.3666 37.6332L42.3666 27.6332C41.739 27.0055 40.8876 26.6529 40 26.6529C39.1123 26.6529 38.261 27.0055 37.6333 27.6332C37.0056 28.2609 36.653 29.1122 36.653 29.9999C36.653 30.8875 37.0056 31.7388 37.6333 32.3665L41.9666 36.6665H30C29.1159 36.6665 28.2681 37.0177 27.643 37.6428C27.0178 38.268 26.6666 39.1158 26.6666 39.9999C26.6666 40.8839 27.0178 41.7318 27.643 42.3569C28.2681 42.982 29.1159 43.3332 30 43.3332H41.9666L37.6333 47.6332C37.3209 47.9431 37.0729 48.3117 36.9037 48.7179C36.7344 49.1241 36.6473 49.5598 36.6473 49.9999C36.6473 50.4399 36.7344 50.8756 36.9037 51.2818C37.0729 51.688 37.3209 52.0566 37.6333 52.3665C37.9432 52.6789 38.3119 52.9269 38.7181 53.0962C39.1242 53.2654 39.5599 53.3525 40 53.3525C40.44 53.3525 40.8757 53.2654 41.2819 53.0962C41.6881 52.9269 42.0568 52.6789 42.3666 52.3665L52.3666 42.3665ZM73.3333 39.9999C73.3333 33.4071 71.3783 26.9625 67.7156 21.4808C64.0529 15.9992 58.847 11.7268 52.7561 9.20387C46.6652 6.68095 39.963 6.02084 33.497 7.30701C27.0309 8.59318 21.0915 11.7679 16.4297 16.4296C11.768 21.0914 8.59331 27.0308 7.30713 33.4968C6.02096 39.9629 6.68107 46.6651 9.20399 52.756C11.7269 58.8468 15.9993 64.0528 21.481 67.7155C26.9626 71.3782 33.4073 73.3332 40 73.3332C48.8405 73.3332 57.319 69.8213 63.5702 63.5701C69.8214 57.3189 73.3333 48.8404 73.3333 39.9999ZM13.3333 39.9999C13.3333 34.7257 14.8973 29.57 17.8275 25.1846C20.7576 20.7993 24.9224 17.3814 29.7951 15.3631C34.6678 13.3447 40.0296 12.8166 45.2024 13.8456C50.3752 14.8745 55.1268 17.4143 58.8562 21.1437C62.5856 24.8731 65.1253 29.6246 66.1542 34.7974C67.1832 39.9703 66.6551 45.332 64.6368 50.2047C62.6184 55.0774 59.2005 59.2422 54.8152 62.1724C50.4299 65.1025 45.2741 66.6665 40 66.6665C32.9275 66.6665 26.1448 63.857 21.1438 58.856C16.1428 53.8551 13.3333 47.0723 13.3333 39.9999Z" fill="#9F8E78"/>
</svg>
